<svg width="14" height="11" viewBox="0 0 14 11" fill="none" xmlns="http://www.w3.org/2000/svg">
<path d="M13.5306 2.03051L5.5306 10.0305C5.46092 10.1004 5.37813 10.1559 5.28696 10.1938C5.1958 10.2316 5.09806 10.2511 4.99935 10.2511C4.90064 10.2511 4.8029 10.2316 4.71173 10.1938C4.62057 10.1559 4.53778 10.1004 4.4681 10.0305L0.968098 6.53051C0.898333 6.46074 0.842993 6.37792 0.805236 6.28677C0.76748 6.19562 0.748047 6.09792 0.748047 5.99926C0.748047 5.9006 0.76748 5.8029 0.805236 5.71175C0.842993 5.62059 0.898333 5.53777 0.968098 5.46801C1.03786 5.39824 1.12069 5.3429 1.21184 5.30515C1.30299 5.26739 1.40069 5.24796 1.49935 5.24796C1.59801 5.24796 1.69571 5.26739 1.78686 5.30515C1.87801 5.3429 1.96083 5.39824 2.0306 5.46801L4.99997 8.43738L12.4693 0.969257C12.6102 0.828361 12.8013 0.749207 13.0006 0.749207C13.1999 0.749207 13.391 0.828361 13.5318 0.969257C13.6727 1.11015 13.7519 1.30125 13.7519 1.50051C13.7519 1.69976 13.6727 1.89086 13.5318 2.03176L13.5306 2.03051Z" fill="white"/>
</svg>
